<?xml version="1.0" encoding="utf-8"?>
<!-- Generator: Adobe Illustrator 16.0.0, SVG Export Plug-In . SVG Version: 6.00 Build 0)  -->
<!DOCTYPE svg PUBLIC "-//W3C//DTD SVG 1.1//EN" "http://www.w3.org/Graphics/SVG/1.1/DTD/svg11.dtd">
<svg version="1.1" id="Layer_1" xmlns="http://www.w3.org/2000/svg" xmlns:xlink="http://www.w3.org/1999/xlink" x="0px" y="0px"
	 width="536.494px" height="199px" viewBox="0 0 536.494 199" enable-background="new 0 0 536.494 199" xml:space="preserve">
<path fill="#FFFFFF" stroke="#000000" stroke-width="5" stroke-miterlimit="10" d="M49.096,99.408c0,0,14.22-65.908,98.254-65.908
	h-0.206c84.035,0,98.255,65.883,98.255,65.883l-0.304,0.363c0,0,20.885,96.754,144.303,96.754h-0.303
	c123.417,0,144.303-96.794,144.303-96.794l-46-0.084c0,0-14.22,65.878-98.254,65.878h0.206c-84.034,0-98.255-65.822-98.255-65.822
	l0.303-0.561c0,0-20.885-96.617-144.303-96.617h0.303C23.98,2.5,3.095,99.226,3.095,99.226L49.096,99.408z"/>
</svg>
