<?xml version="1.0" encoding="utf-8"?>
<!-- Generator: Adobe Illustrator 16.0.0, SVG Export Plug-In . SVG Version: 6.00 Build 0)  -->
<!DOCTYPE svg PUBLIC "-//W3C//DTD SVG 1.1 Tiny//EN" "http://www.w3.org/Graphics/SVG/1.1/DTD/svg11-tiny.dtd">
<svg version="1.1" baseProfile="tiny" id="Layer_1" xmlns="http://www.w3.org/2000/svg" xmlns:xlink="http://www.w3.org/1999/xlink"
	 x="0px" y="0px" width="548.8px" height="313.6px" viewBox="205.6 123.2 548.8 313.6" xml:space="preserve">
<g>
	<path d="M597.6,436.8c-86.575,0-156.8-70.224-156.8-156.8c0-43.288-35.112-78.4-78.4-78.4c-43.288,0-78.4,35.112-78.4,78.4
		c0,21.616-17.528,39.2-39.2,39.2c-21.672,0-39.2-17.584-39.2-39.2c0-86.576,70.224-156.8,156.8-156.8S519.2,193.424,519.2,280
		c0,43.288,35.112,78.4,78.399,78.4c43.288,0,78.4-35.112,78.4-78.4c0-21.616,17.528-39.2,39.2-39.2s39.2,17.584,39.2,39.2
		C754.4,366.576,684.176,436.8,597.6,436.8z"/>
</g>
</svg>
